HIERARCHY
ROOT Hips
{
	OFFSET 0.00000 0.00000 0.00000
	CHANNELS 6 Xposition Yposition Zposition Zrotation Yrotation Xrotation 
	JOINT LHipJoint
	{
		OFFSET 0 0 0
		CHANNELS 3 Zrotation Yrotation Xrotation
		JOINT LeftUpLeg
		{
			OFFSET 1.58895 -1.83665 0.71753
			CHANNELS 3 Zrotation Yrotation Xrotation
			JOINT LeftLeg
			{
				OFFSET 2.50528 -6.88321 0.00000
				CHANNELS 3 Zrotation Yrotation Xrotation
				JOINT LeftFoot
				{
					OFFSET 2.63244 -7.23257 0.00000
					CHANNELS 3 Zrotation Yrotation Xrotation
					JOINT LeftToeBase
					{
						OFFSET 0.23691 -0.65090 1.72750
						CHANNELS 3 Zrotation Yrotation Xrotation
						End Site
						{
							OFFSET 0.00000 -0.00000 0.92561
						}
					}
				}
			}
		}
	}
	JOINT RHipJoint
	{
		OFFSET 0 0 0
		CHANNELS 3 Zrotation Yrotation Xrotation
		JOINT RightUpLeg
		{
			OFFSET -1.51435 -1.83665 0.71753
			CHANNELS 3 Zrotation Yrotation Xrotation
			JOINT RightLeg
			{
				OFFSET -2.54551 -6.99375 0.00000
				CHANNELS 3 Zrotation Yrotation Xrotation
				JOINT RightFoot
				{
					OFFSET -2.66027 -7.30903 0.00000
					CHANNELS 3 Zrotation Yrotation Xrotation
					JOINT RightToeBase
					{
						OFFSET -0.22981 -0.63138 2.03959
						CHANNELS 3 Zrotation Yrotation Xrotation
						End Site
						{
							OFFSET -0.00000 -0.00000 1.07060
						}
					}
				}
			}
		}
	}
	JOINT LowerBack
	{
		OFFSET 0 0 0
		CHANNELS 3 Zrotation Yrotation Xrotation
		JOINT Spine
		{
			OFFSET -0.02651 1.86275 -0.11152
			CHANNELS 3 Zrotation Yrotation Xrotation
			JOINT Spine1
			{
				OFFSET 0.01019 1.86224 0.04087
				CHANNELS 3 Zrotation Yrotation Xrotation
				JOINT Neck
				{
					OFFSET 0 0 0
					CHANNELS 3 Zrotation Yrotation Xrotation
					JOINT Neck1
					{
						OFFSET -0.01926 1.80512 0.08867
						CHANNELS 3 Zrotation Yrotation Xrotation
						JOINT Head
						{
							OFFSET 0.05516 1.76451 -0.38475
							CHANNELS 3 Zrotation Yrotation Xrotation
							End Site
							{
								OFFSET 0.01592 1.82587 -0.14001
							}
						}
					}
				}
				JOINT LeftShoulder
				{
					OFFSET 0 0 0
					CHANNELS 3 Zrotation Yrotation Xrotation
					JOINT LeftArm
					{
						OFFSET 3.47116 1.51376 0.14491
						CHANNELS 3 Zrotation Yrotation Xrotation
						JOINT LeftForeArm
						{
							OFFSET 4.78095 -0.00000 0.00000
							CHANNELS 3 Zrotation Yrotation Xrotation
							JOINT LeftHand
							{
								OFFSET 3.58615 -0.00000 -0.00000
								CHANNELS 3 Zrotation Yrotation Xrotation
								JOINT LeftFingerBase
								{
									OFFSET 0 0 0
									CHANNELS 3 Zrotation Yrotation Xrotation
									JOINT LeftHandIndex1
									{
										OFFSET 0.65981 -0.00000 0.00000
										CHANNELS 3 Zrotation Yrotation Xrotation
										End Site
										{
											OFFSET 0.53196 -0.00000 0.00000
										}
									}
								}
								JOINT LThumb
								{
									OFFSET 0 0 0
									CHANNELS 3 Zrotation Yrotation Xrotation
									End Site
									{
										OFFSET 0.54008 -0.00000 0.54008
									}
								}
							}
						}
					}
				}
				JOINT RightShoulder
				{
					OFFSET 0 0 0
					CHANNELS 3 Zrotation Yrotation Xrotation
					JOINT RightArm
					{
						OFFSET -3.31725 1.61216 0.35156
						CHANNELS 3 Zrotation Yrotation Xrotation
						JOINT RightForeArm
						{
							OFFSET -4.48913 -0.00000 0.00000
							CHANNELS 3 Zrotation Yrotation Xrotation
							JOINT RightHand
							{
								OFFSET -3.70510 -0.00000 0.00000
								CHANNELS 3 Zrotation Yrotation Xrotation
								JOINT RightFingerBase
								{
									OFFSET 0 0 0
									CHANNELS 3 Zrotation Yrotation Xrotation
									JOINT RightHandIndex1
									{
										OFFSET -0.44914 -0.00000 0.00000
										CHANNELS 3 Zrotation Yrotation Xrotation
										End Site
										{
											OFFSET -0.36211 -0.00000 0.00000
										}
									}
								}
								JOINT RThumb
								{
									OFFSET 0 0 0
									CHANNELS 3 Zrotation Yrotation Xrotation
									End Site
									{
										OFFSET -0.36763 -0.00000 0.36763
									}
								}
							}
						}
					}
				}
			}
		}
	}
}
MOTION
Frames: 10
Frame Time: .0083333
-1.0308 18.1462 5.0651 0 0 0 0 0 0 -21 0 0 0 0 0 0 0 0 0 0 0 0 0 0 21 0 0 0 0 0 0 0 0 0 0 0 0 0 0 0 0 0 0 0 0 0 0 -16 0 0 21 0 0 11 0 0 0 -8 0 0 0 0 0 0 0 0 0 0 0 0 0 0 0 0 0 0 0 0 8 0 0 0 0 0 0 0 0 0 0 0 0 0 0 0 0 0
-1.0308 18.1462 5.0651 -4.9394 -6.3691 -1.9508 0.0000 0.0000 0.0000 -10.9611 1.3421 19.5730 1.0430 -6.4949 -18.2273 -1.5658 21.7038 -11.6401 0.1220 -2.2517 -6.2019 0.0000 0.0000 0.0000 0.0000 0.0000 0.0000 0.0000 0.0000 0.0000 -0.0000 -0.0000 0.0000 -0.0000 -0.0000 0.0000 2.8994 0.4051 7.0646 2.1830 0.8838 -0.5133 0.5391 0.3939 -4.4901 -1.9078 -0.2669 -7.5790 3.6129 -0.6697 14.8969 1.4032 -0.1730 5.7611 0.0000 0.0000 0.0000 -94.3327 11.8252 20.9184 19.7676 -30.3614 -5.4134 -0.0000 -0.0000 13.9789 4.4338 -26.6921 -1.9948 -7.1250 0.0000 -0.0000 -15.2569 4.0082 14.6937 0.0000 0.0000 0.0000 91.0978 -15.1729 23.6181 -23.2826 34.3964 -7.2973 0.0000 0.0000 20.6842 -6.7681 -28.1708 3.2068 7.1250 -0.0000 -0.0000 25.7369 -56.3993 -7.5428
-1.0316 18.1445 5.0474 -4.8882 -6.2596 -2.0278 0.0000 0.0000 0.0000 -10.9915 1.3581 19.5635 1.0480 -6.5099 -18.2714 -1.5638 21.6707 -11.4649 0.1258 -2.2861 -6.2970 0.0000 0.0000 0.0000 0.0000 0.0000 0.0000 0.0000 0.0000 0.0000 -0.0000 -0.0000 0.0000 -0.0000 -0.0000 0.0000 2.7854 0.3721 7.2616 2.1827 0.8361 -0.4338 0.6066 0.3731 -4.5204 -1.9497 -0.2617 -7.6804 3.5687 -0.6465 14.8171 1.3975 -0.1667 5.7529 0.0000 -0.0000 0.0000 -94.2736 11.7363 20.9311 19.7434 -30.3320 -5.4012 -0.0000 -0.0000 14.0164 4.4424 -26.6664 -1.9969 -7.1250 0.0000 -0.0000 -15.2517 4.0323 14.6812 0.0000 -0.0000 0.0000 91.0738 -15.1653 24.0845 -23.2830 34.3968 -7.2975 0.0000 0.0000 20.7055 -7.6291 -28.2400 3.6265 7.1250 -0.0000 -0.0000 24.9384 -56.6363 -7.4335
-1.0338 18.1443 5.0317 -4.8121 -6.1552 -2.0961 0.0000 0.0000 0.0000 -11.0450 1.3944 19.5477 1.0544 -6.5294 -18.3283 -1.5596 21.6211 -11.2556 0.1330 -2.3505 -6.4754 0.0000 0.0000 0.0000 0.0000 0.0000 0.0000 0.0000 0.0000 0.0000 -0.0000 -0.0000 0.0000 -0.0000 -0.0000 0.0000 2.6245 0.3568 7.4380 2.1855 0.8068 -0.3572 0.7019 0.3625 -4.5424 -1.9197 -0.3004 -7.7528 3.4819 -0.6859 14.7059 1.3618 -0.1903 5.7315 -0.0000 -0.0000 0.0000 -94.2017 11.7031 21.0897 19.7898 -30.3883 -5.4246 -0.0000 -0.0000 13.9319 4.5341 -26.6693 -2.0385 -7.1250 0.0000 -0.0000 -15.1979 4.0214 14.6286 -0.0000 -0.0000 0.0000 91.0213 -15.2041 24.5575 -23.3534 34.4730 -7.3373 0.0000 0.0000 20.8769 -9.1276 -27.9275 4.3034 7.1250 -0.0000 -0.0000 23.2311 -56.6590 -6.8967
-1.0357 18.1443 5.0171 -4.7710 -6.0538 -2.1301 0.0000 0.0000 0.0000 -11.0556 1.4683 19.4876 1.0615 -6.5505 -18.3904 -1.5536 21.5592 -11.0209 0.1354 -2.3720 -6.5350 0.0000 0.0000 0.0000 0.0000 0.0000 0.0000 0.0000 0.0000 0.0000 -0.0000 -0.0000 0.0000 -0.0000 -0.0000 0.0000 2.5019 0.3464 7.5840 2.2007 0.7868 -0.2987 0.7879 0.3558 -4.5656 -1.9362 -0.3422 -7.8495 3.4509 -0.7339 14.6843 1.3512 -0.2160 5.7428 -0.0000 -0.0000 0.0000 -94.1622 11.6270 21.1481 19.7912 -30.3899 -5.4253 -0.0000 -0.0000 13.9527 4.7277 -26.8391 -2.1383 -7.1250 0.0000 -0.0000 -15.0854 3.8404 14.5645 -0.0000 -0.0000 0.0000 90.9347 -15.2848 24.9737 -23.4668 34.5954 -7.4017 0.0000 0.0000 21.2826 -9.9482 -26.7625 4.5158 7.1250 -0.0000 -0.0000 21.6410 -55.7524 -5.9084
-1.0364 18.1436 5.0029 -4.7781 -5.9685 -2.1221 0.0000 0.0000 0.0000 -11.0224 1.5219 19.3999 1.0674 -6.5681 -18.4421 -1.5528 21.5304 -10.7805 0.1431 -2.4379 -6.7174 0.0000 0.0000 0.0000 0.0000 0.0000 0.0000 0.0000 0.0000 0.0000 -0.0000 -0.0000 0.0000 -0.0000 -0.0000 0.0000 2.4636 0.3435 7.6714 2.2032 0.7813 -0.2452 0.8120 0.3542 -4.5596 -1.9928 -0.3548 -7.9067 3.5216 -0.7516 14.6278 1.3813 -0.2223 5.7358 -0.0000 -0.0000 0.0000 -94.0923 11.4968 21.1619 19.7771 -30.3729 -5.4182 -0.0000 -0.0000 14.0272 4.9123 -26.9484 -2.2305 -7.1250 0.0000 -0.0000 -14.9780 3.7182 14.4880 -0.0000 -0.0000 0.0000 90.8748 -15.2989 25.2263 -23.5078 34.6394 -7.4249 0.0000 0.0000 21.6015 -10.3357 -25.8300 4.5433 7.1250 -0.0000 -0.0000 20.6811 -54.9602 -5.2243
-1.0379 18.1443 4.9906 -4.7624 -5.8824 -2.0911 0.0000 0.0000 0.0000 -11.0208 1.5258 19.3110 1.0726 -6.5835 -18.4870 -1.5533 21.5129 -10.5577 0.1604 -2.5805 -7.1129 0.0000 0.0000 0.0000 0.0000 0.0000 0.0000 0.0000 0.0000 0.0000 -0.0000 -0.0000 0.0000 -0.0000 -0.0000 0.0000 2.4217 0.3571 7.6960 2.1688 0.7930 -0.1832 0.7982 0.3612 -4.5088 -2.0180 -0.3777 -7.9221 3.6492 -0.7937 14.4575 1.4217 -0.2356 5.6869 -0.0000 -0.0000 0.0000 -93.9266 11.3601 21.3472 19.8010 -30.4019 -5.4303 -0.0000 -0.0000 13.9397 5.0515 -26.9032 -2.2904 -7.1250 0.0000 -0.0000 -14.8960 3.7491 14.3940 -0.0000 -0.0000 0.0000 90.8813 -15.2021 25.3206 -23.4950 34.6256 -7.4176 0.0000 0.0000 21.6580 -10.6539 -25.6081 4.6483 7.1250 -0.0000 -0.0000 20.2355 -54.8132 -5.0308
-1.0394 18.1461 4.9807 -4.7025 -5.7842 -2.0428 0.0000 0.0000 0.0000 -11.0703 1.5027 19.2159 1.0793 -6.6035 -18.5458 -1.5520 21.4899 -10.3804 0.1685 -2.6448 -7.2914 0.0000 0.0000 0.0000 0.0000 0.0000 0.0000 0.0000 0.0000 0.0000 -0.0000 -0.0000 0.0000 -0.0000 -0.0000 0.0000 2.3439 0.3760 7.6773 2.1161 0.8065 -0.1337 0.7858 0.3697 -4.4467 -1.9760 -0.4157 -7.9973 3.7087 -0.8566 14.3665 1.4285 -0.2595 5.6734 0.0000 0.0000 0.0000 -93.7494 11.2092 21.5442 19.8328 -30.4404 -5.4464 -0.0000 -0.0000 13.7842 5.0260 -26.8264 -2.2728 -7.1250 0.0000 -0.0000 -14.9103 3.8256 14.3870 0.0000 0.0000 0.0000 90.8800 -15.0972 25.3555 -23.4767 34.6060 -7.4073 0.0000 0.0000 21.4728 -9.0402 -26.4276 4.0505 7.1250 -0.0000 -0.0000 22.3251 -55.2657 -5.8396
-1.0394 18.1459 4.9722 -4.6820 -5.7037 -2.0208 0.0000 0.0000 0.0000 -11.0791 1.4937 19.1585 1.0862 -6.6238 -18.6056 -1.5508 21.4713 -10.2412 0.1703 -2.6583 -7.3288 0.0000 0.0000 0.0000 0.0000 0.0000 0.0000 0.0000 0.0000 0.0000 -0.0000 -0.0000 0.0000 -0.0000 -0.0000 0.0000 2.3202 0.3841 7.6888 2.0857 0.8132 -0.1029 0.7666 0.3735 -4.4209 -1.9052 -0.4309 -8.0660 3.6670 -0.8795 14.3499 1.4019 -0.2692 5.6804 -0.0000 0.0000 0.0000 -93.6338 11.0735 21.5712 19.8678 -30.4827 -5.4641 -0.0000 -0.0000 13.7079 4.8536 -26.8187 -2.1940 -7.1250 0.0000 -0.0000 -15.0113 3.8487 14.4852 -0.0000 0.0000 0.0000 90.8080 -15.0380 25.4360 -23.4771 34.6064 -7.4075 0.0000 0.0000 21.1702 -3.5630 -29.3868 1.7501 7.1250 -0.0000 -0.0000 29.7846 -56.8136 -9.1822
-1.0385 18.1445 4.9635 -4.7172 -5.6091 -2.0130 0.0000 0.0000 0.0000 -11.0255 1.5122 19.1128 1.0927 -6.6430 -18.6619 -1.5463 21.4333 -10.1021 0.1729 -2.6782 -7.3842 0.0000 0.0000 0.0000 0.0000 0.0000 0.0000 0.0000 0.0000 0.0000 -0.0000 -0.0000 0.0000 -0.0000 -0.0000 0.0000 2.3663 0.3745 7.7323 2.0856 0.8055 -0.0807 0.7413 0.3687 -4.4217 -1.8524 -0.4351 -8.0818 3.5791 -0.8779 14.3117 1.3654 -0.2719 5.6706 -0.0000 0.0000 0.0000 -93.5541 10.9783 21.6085 19.9374 -30.5669 -5.4995 -0.0000 -0.0000 13.5660 4.8141 -26.7667 -2.1722 -7.1250 0.0000 -0.0000 -15.0342 3.9025 14.4934 -0.0000 0.0000 0.0000 90.6629 -14.9756 25.5557 -23.5104 34.6422 -7.4264 0.0000 0.0000 20.9321 -8.0570 -27.2644 3.7102 7.1250 -0.0000 -0.0000 23.8383 -55.8394 -6.6084
